<svg xmlns="http://www.w3.org/2000/svg" xmlns:xlink="http://www.w3.org/1999/xlink" viewBox="0 0 286.78 253.5"><defs><style>.cls-1{isolation:isolate;}.cls-2{fill:url(#Безымянный_градиент_6);}.cls-20,.cls-27,.cls-3,.cls-31,.cls-4,.cls-6{opacity:0.9;}.cls-11,.cls-14,.cls-15,.cls-18,.cls-21,.cls-27,.cls-28,.cls-3,.cls-30,.cls-37,.cls-38,.cls-4,.cls-7{mix-blend-mode:multiply;}.cls-3{fill:url(#Безымянный_градиент_1313);}.cls-4{fill:url(#Безымянный_градиент_1313-3);}.cls-5{fill:url(#Безымянный_градиент_6-2);}.cls-20,.cls-31,.cls-6{mix-blend-mode:screen;}.cls-6{fill:url(#Безымянный_градиент_6-3);}.cls-21,.cls-7{opacity:0.3;}.cls-7{fill:url(#Безымянный_градиент_6-4);}.cls-8{fill:url(#Безымянный_градиент_6-5);}.cls-9{fill:url(#Безымянный_градиент_227);}.cls-10{fill:url(#Безымянный_градиент_2);}.cls-11{opacity:0.8;fill:url(#Безымянный_градиент_6-6);}.cls-12{fill:url(#Безымянный_градиент_6-7);}.cls-13{fill:url(#Безымянный_градиент_227-2);}.cls-14,.cls-15,.cls-18,.cls-28,.cls-37,.cls-38{opacity:0.5;}.cls-14{fill:url(#Безымянный_градиент_227-3);}.cls-15{fill:url(#Безымянный_градиент_227-4);}.cls-16{fill:url(#Безымянный_градиент_227-5);}.cls-17{fill:url(#Безымянный_градиент_227-6);}.cls-18{fill:url(#Безымянный_градиент_227-7);}.cls-19{fill:url(#Безымянный_градиент_6-8);}.cls-20{fill:url(#Безымянный_градиент_6-9);}.cls-21{fill:url(#Безымянный_градиент_6-10);}.cls-22{fill:url(#Безымянный_градиент_6-11);}.cls-23{fill:url(#Безымянный_градиент_6-12);}.cls-24{fill:url(#Безымянный_градиент_6-13);}.cls-25{fill:url(#Безымянный_градиент_3);}.cls-26{fill:url(#Безымянный_градиент_6-14);}.cls-27{fill:url(#Безымянный_градиент_1313-4);}.cls-28{fill:url(#Безымянный_градиент_227-8);}.cls-29{fill:url(#Безымянный_градиент_6-15);}.cls-30{opacity:0.2;fill:url(#Безымянный_градиент_6-16);}.cls-31{fill:url(#Безымянный_градиент_6-17);}.cls-32{fill:url(#Безымянный_градиент_6-18);}.cls-33{fill:url(#Безымянный_градиент_6-19);}.cls-34{fill:url(#Безымянный_градиент_278);}.cls-35{fill:url(#Безымянный_градиент_227-9);}.cls-36{fill:url(#Безымянный_градиент_227-10);}.cls-37{fill:url(#Безымянный_градиент_227-11);}.cls-38{fill:url(#Безымянный_градиент_227-12);}</style><linearGradient id="Безымянный_градиент_6" x1="1342.89" y1="-214.93" x2="1399.32" y2="-214.93" gradientTransform="matrix(-0.94, 0.33, 0.33, 0.94, 1488.78, -11.32)" gradientUnits="userSpaceOnUse"><stop offset="0" stop-color="#4d5273"/><stop offset="0.14" stop-color="#40445d"/><stop offset="0.34" stop-color="#303243"/><stop offset="0.55" stop-color="#242630"/><stop offset="0.77" stop-color="#1d1e25"/><stop offset="1" stop-color="#1b1c21"/></linearGradient><radialGradient id="Безымянный_градиент_1313" cx="57004.3" cy="-65989.19" r="936.3" gradientTransform="matrix(-0.03, 0.01, 0, 0.01, 1993.98, 788.85)" gradientUnits="userSpaceOnUse"><stop offset="0.07" stop-color="#a3a3a3"/><stop offset="0.38" stop-color="#bebebe"/><stop offset="1" stop-color="#fff"/></radialGradient><radialGradient id="Безымянный_градиент_1313-3" cx="56909.08" cy="-63460.11" r="936.98" gradientTransform="matrix(-0.03, 0.01, 0, 0.02, 2006.9, 835.63)" xlink:href="#Безымянный_градиент_1313"/><linearGradient id="Безымянный_градиент_6-2" x1="1378.5" y1="419.83" x2="1385.51" y2="475.04" gradientTransform="translate(1574.01 228.8) rotate(162.22)" xlink:href="#Безымянный_градиент_6"/><linearGradient id="Безымянный_градиент_6-3" x1="1355.31" y1="426.85" x2="1359.43" y2="459.28" gradientTransform="translate(1574.01 228.8) rotate(162.22)" xlink:href="#Безымянный_градиент_6"/><linearGradient id="Безымянный_градиент_6-4" x1="1406.1" y1="-211.13" x2="1410.34" y2="-177.74" gradientTransform="matrix(-0.95, 0.31, 0.31, 0.95, 1496.51, -11.09)" xlink:href="#Безымянный_градиент_6"/><linearGradient id="Безымянный_градиент_6-5" x1="1356.78" y1="-180.51" x2="1416.26" y2="-230.24" gradientTransform="matrix(-0.95, 0.31, 0.31, 0.95, 1496.51, -11.09)" xlink:href="#Безымянный_градиент_6"/><radialGradient id="Безымянный_градиент_227" cx="1352.63" cy="-197.59" r="32.6" gradientTransform="matrix(-0.95, 0.31, 0.31, 0.95, 1496.51, -11.09)" gradientUnits="userSpaceOnUse"><stop offset="0" stop-color="#ffe7a1"/><stop offset="0.36" stop-color="#ffcf4d"/><stop offset="0.53" stop-color="#ffc529"/><stop offset="0.87" stop-color="#996e00"/></radialGradient><linearGradient id="Безымянный_градиент_2" x1="1380.55" y1="-200.32" x2="1384.72" y2="-200.31" gradientTransform="matrix(-0.95, 0.31, 0.31, 0.95, 1496.51, -11.09)" gradientUnits="userSpaceOnUse"><stop offset="0" stop-color="#8c95d1"/><stop offset="0.11" stop-color="#727aa9"/><stop offset="0.25" stop-color="#585d80"/><stop offset="0.4" stop-color="#42465e"/><stop offset="0.54" stop-color="#313343"/><stop offset="0.69" stop-color="#252630"/><stop offset="0.84" stop-color="#1d1f25"/><stop offset="1" stop-color="#1b1c21"/></linearGradient><linearGradient id="Безымянный_градиент_6-6" x1="1383" y1="-198.24" x2="1383.48" y2="-202.02" gradientTransform="matrix(-0.95, 0.31, 0.31, 0.95, 1496.51, -11.09)" xlink:href="#Безымянный_градиент_6"/><linearGradient id="Безымянный_градиент_6-7" x1="1380.35" y1="-200.77" x2="1386.22" y2="-200.77" gradientTransform="matrix(-0.95, 0.31, 0.31, 0.95, 1496.51, -11.09)" xlink:href="#Безымянный_градиент_6"/><radialGradient id="Безымянный_градиент_227-2" cx="-525.5" cy="1864.35" r="13.95" gradientTransform="matrix(0.36, -0.93, -0.93, -0.36, 2099.29, 419.01)" xlink:href="#Безымянный_градиент_227"/><radialGradient id="Безымянный_градиент_227-3" cx="-1581.78" cy="667.37" r="12.82" gradientTransform="translate(1863.12 -55.61) rotate(13.17)" xlink:href="#Безымянный_градиент_227"/><radialGradient id="Безымянный_градиент_227-4" cx="-1578.32" cy="670.3" r="6.82" gradientTransform="translate(1863.12 -55.61) rotate(13.17)" xlink:href="#Безымянный_градиент_227"/><radialGradient id="Безымянный_градиент_227-5" cx="-346.44" cy="-2358.04" r="26.96" gradientTransform="translate(2640.82 -46.95) rotate(-85.12)" xlink:href="#Безымянный_градиент_227"/><radialGradient id="Безымянный_градиент_227-6" cx="2633.02" cy="1047.16" r="14.49" gradientTransform="matrix(-0.97, -0.22, -0.22, 0.97, 3076.62, -350.03)" xlink:href="#Безымянный_градиент_227"/><radialGradient id="Безымянный_градиент_227-7" cx="-325.63" cy="-2343.43" r="13.32" gradientTransform="translate(2640.82 -46.95) rotate(-85.12)" xlink:href="#Безымянный_градиент_227"/><linearGradient id="Безымянный_градиент_6-8" x1="-970.83" y1="1719.28" x2="-956.08" y2="1835.47" gradientTransform="translate(1510.98 -1450.36) rotate(10.68)" xlink:href="#Безымянный_градиент_6"/><linearGradient id="Безымянный_градиент_6-9" x1="-994.21" y1="1732.58" x2="-986.79" y2="1791.09" gradientTransform="translate(1510.98 -1450.36) rotate(10.68)" xlink:href="#Безымянный_градиент_6"/><linearGradient id="Безымянный_градиент_6-10" x1="-1439.06" y1="676.22" x2="-1427.56" y2="766.76" gradientTransform="translate(1382.42 -1030.88) rotate(-18.46)" xlink:href="#Безымянный_градиент_6"/><linearGradient id="Безымянный_градиент_6-11" x1="-1477.7" y1="662.67" x2="-1439.17" y2="788.35" gradientTransform="translate(1382.42 -1030.88) rotate(-18.46)" xlink:href="#Безымянный_градиент_6"/><linearGradient id="Безымянный_градиент_6-12" x1="-1536.63" y1="674.4" x2="-1434.33" y2="749.86" gradientTransform="translate(1382.42 -1030.88) rotate(-18.46)" xlink:href="#Безымянный_градиент_6"/><linearGradient id="Безымянный_градиент_6-13" x1="-1476.2" y1="773.83" x2="-1453.74" y2="733.41" gradientTransform="translate(1382.42 -1030.88) rotate(-18.46)" xlink:href="#Безымянный_градиент_6"/><linearGradient id="Безымянный_градиент_3" x1="-1432.96" y1="691.07" x2="-1459.27" y2="743.2" gradientTransform="translate(1382.42 -1030.88) rotate(-18.46)" gradientUnits="userSpaceOnUse"><stop offset="0" stop-color="#404460"/><stop offset="0.02" stop-color="#3e425d"/><stop offset="0.25" stop-color="#2f3243"/><stop offset="0.49" stop-color="#242630"/><stop offset="0.74" stop-color="#1d1e25"/><stop offset="1" stop-color="#1b1c21"/></linearGradient><linearGradient id="Безымянный_градиент_6-14" x1="1432.28" y1="498.08" x2="1524.02" y2="417.17" gradientTransform="translate(1719.18 509.92) rotate(175.93)" xlink:href="#Безымянный_градиент_6"/><radialGradient id="Безымянный_градиент_1313-4" cx="-41618.54" cy="-20132.22" r="996.76" gradientTransform="matrix(0.03, -0.01, 0.01, 0.02, 1551.93, 159.05)" xlink:href="#Безымянный_градиент_1313"/><radialGradient id="Безымянный_градиент_227-8" cx="-322.02" cy="-2340.38" r="7.08" gradientTransform="translate(2640.82 -46.95) rotate(-85.12)" xlink:href="#Безымянный_градиент_227"/><linearGradient id="Безымянный_градиент_6-15" x1="704.45" y1="-144.23" x2="722.63" y2="-1.01" gradientTransform="translate(-471.82 515.82) rotate(-33.38)" xlink:href="#Безымянный_градиент_6"/><linearGradient id="Безымянный_градиент_6-16" x1="700.63" y1="-143.78" x2="713.13" y2="-45.26" gradientTransform="translate(-418.93 480.97) rotate(-33.38)" xlink:href="#Безымянный_градиент_6"/><linearGradient id="Безымянный_градиент_6-17" x1="582.44" y1="-128.39" x2="594.67" y2="-32.01" gradientTransform="translate(-418.93 480.97) rotate(-33.38)" xlink:href="#Безымянный_градиент_6"/><linearGradient id="Безымянный_градиент_6-18" x1="704.72" y1="-140.46" x2="722.39" y2="-1.3" gradientTransform="translate(-471.82 515.82) rotate(-33.38)" xlink:href="#Безымянный_градиент_6"/><linearGradient id="Безымянный_градиент_6-19" x1="649.19" y1="-33.79" x2="782.55" y2="-33.79" gradientTransform="translate(-471.82 515.82) rotate(-33.38)" xlink:href="#Безымянный_градиент_6"/><radialGradient id="Безымянный_градиент_278" cx="758.96" cy="35.87" r="105.59" gradientTransform="translate(-471.82 515.82) rotate(-33.38)" xlink:href="#Безымянный_градиент_6"/><radialGradient id="Безымянный_градиент_227-9" cx="807.6" cy="-64.03" r="61.57" gradientTransform="translate(-471.82 515.82) rotate(-33.38)" xlink:href="#Безымянный_градиент_227"/><radialGradient id="Безымянный_градиент_227-10" cx="513.01" cy="-448.7" r="33.08" gradientTransform="matrix(-0.43, -0.9, -0.9, 0.43, 35.54, 670.51)" xlink:href="#Безымянный_градиент_227"/><radialGradient id="Безымянный_градиент_227-11" cx="855.14" cy="-30.66" r="30.42" gradientTransform="translate(-471.82 515.82) rotate(-33.38)" xlink:href="#Безымянный_градиент_227"/><radialGradient id="Безымянный_градиент_227-12" cx="863.36" cy="-23.7" r="16.17" gradientTransform="translate(-471.82 515.82) rotate(-33.38)" xlink:href="#Безымянный_градиент_227"/></defs><g class="cls-1"><g id="Layer_2" data-name="Layer 2"><g id="Слой_1" data-name="Слой 1"><path class="cls-2" d="M98.59,251.31c.74,2.56,14.12,3.6,28.93-1s25.46-13,24.69-15.55c-3.72-12.42-4-22.79-33-13.7C88.47,230.75,94,235.23,98.59,251.31Z"/><path class="cls-3" d="M96.09,240.2c2,7.7,15.55,10.79,30.14,6.89s24.74-13.3,22.69-21-15.55-10.79-30.14-6.89S94,232.5,96.09,240.2Z"/><path class="cls-3" d="M96.09,240.2c2,7.7,15.55,10.79,30.14,6.89s24.74-13.3,22.69-21-15.55-10.79-30.14-6.89S94,232.5,96.09,240.2Z"/><path class="cls-4" d="M96.42,241.45c2.24,8.39,15.89,12,30.48,8.14s24.59-13.86,22.35-22.25-15.88-12-30.47-8.14S94.18,233.06,96.42,241.45Z"/><polygon class="cls-5" points="112.35 203.04 168.99 204.1 169.37 205.3 125.47 242.69 69.04 234.73 68.64 233.5 112.35 203.04"/><polygon class="cls-6" points="125.07 241.46 125.47 242.69 169.37 205.3 168.99 204.1 119.3 218.69 125.07 241.46"/><polygon class="cls-7" points="125.47 242.69 69.04 234.73 68.64 233.5 117.91 218.59 119.53 218.79 125.07 241.46 125.47 242.69"/><polygon class="cls-8" points="112.35 203.04 168.99 204.1 125.07 241.46 68.65 233.5 112.35 203.04"/><path class="cls-9" d="M118.48,221.41s26.11-.14,29.21.81,8.19,9.38,12.37,11.79c8.5,4.89,3.2-.68,3.2-.68a32,32,0,0,1-7.54-6c-3.2-3.58-4.68-6.19-6.49-6.71s-27.46-.87-27.46-.87l-2.65-.13Z"/><path class="cls-10" d="M121,219.6c.23.72-.83,1.71-2.37,2.21s-3,.3-3.22-.42c0,0,0-.06,0-.1l-.12-.38.18-.06a4.69,4.69,0,0,1,5.2-1.67l.21,0Z"/><path class="cls-11" d="M121,219.6c.23.72-.83,1.71-2.37,2.21s-3,.3-3.22-.42l-.14-.45.18-.09a4.69,4.69,0,0,1,5.2-1.67l.21,0Z"/><path class="cls-12" d="M115.25,221c.23.73,1.67.91,3.22.42s2.6-1.49,2.37-2.21-1.67-.91-3.22-.42S115,220.22,115.25,221Z"/><path class="cls-13" d="M176,239.36s-6.15.42-10-1.1-5.29-3.64-5.13-4.3,1.52-2.21,6.27-.67a34.87,34.87,0,0,0,8.81,1.65A8.71,8.71,0,0,1,176,239.36Z"/><path class="cls-14" d="M176.18,235.87a21.49,21.49,0,0,1-4.57-.34,30.91,30.91,0,0,1-5.33-1.5,23.65,23.65,0,0,0,6.6,2.21,32.66,32.66,0,0,0,3.37.51C176.24,236.43,176.21,236.14,176.18,235.87Z"/><path class="cls-15" d="M176.18,238.07l-.92,0a31.6,31.6,0,0,1-5.52-.47,23.28,23.28,0,0,0,6.38.92Z"/><path class="cls-16" d="M247,113.53s3.78-7.75,10.58-10.85c8-3.63,16.28-5.32,20.61-11.18s4.31-11.14,4.31-11.14l-1.43-.13A19,19,0,0,1,269.19,96C261.94,99,247.6,101.83,247,113.53Z"/><path class="cls-17" d="M283.17,72.19s1.36,6.26.36,10.41-2.94,6-3.65,5.92-2.49-1.23-1.62-6.35a36.38,36.38,0,0,0,.38-9.3A8.89,8.89,0,0,1,283.17,72.19Z"/><path class="cls-18" d="M279.55,72.51a21.37,21.37,0,0,1,.34,4.74,32.05,32.05,0,0,1-.74,5.71,24.8,24.8,0,0,0,1.29-7.12,34.27,34.27,0,0,0,0-3.53A7.47,7.47,0,0,0,279.55,72.51Z"/><polygon class="cls-19" points="230.32 166.73 182.09 120.42 182.36 118.9 240.05 79.88 286.78 131.46 286.49 133.02 230.32 166.73"/><polygon class="cls-20" points="239.76 81.44 240.05 79.88 182.36 118.9 182.09 120.42 234.62 121.8 239.76 81.44"/><polygon class="cls-21" points="240.05 79.88 239.76 81.44 234.46 121.55 235.82 122.67 286.49 133.02 286.78 131.46 240.05 79.88"/><polygon class="cls-22" points="230.32 166.73 182.09 120.42 239.77 81.38 286.48 133.01 230.32 166.73"/><path class="cls-23" d="M238,104c-14.25-1.63-27,6-29.69,17.3h0a18.76,18.76,0,0,0-.37,2l-1.53,8.46,2.49.43c3.09,8.83,12.32,15.88,23.9,17.21C243,150.57,252.47,147,258,140.63l2.87.49,1.72-9.6c.11-.55.2-1.11.26-1.68C264.27,117.3,253.13,105.72,238,104Z"/><path class="cls-24" d="M261.06,139.73c-1.43,12.54-14.9,21.3-30.09,19.56S204.65,146,206.09,133.43s14.91-21.3,30.09-19.56S262.5,127.19,261.06,139.73Z"/><path class="cls-25" d="M236.18,113.87c-13-1.48-24.74,4.72-28.75,14.4,1.34,10.67,11.55,19.75,24.86,21.28,13,1.49,24.73-4.71,28.75-14.39C259.69,124.49,249.49,115.4,236.18,113.87Z"/><path class="cls-26" d="M236.18,113.87c-15.18-1.74-28.65,7-30.09,19.56s9.7,24.12,24.88,25.86,28.66-7,30.09-19.56S251.36,115.61,236.18,113.87Zm23.61,25.71c-.88,7.68-6.78,14.24-15.4,17.12A31,31,0,0,1,231.12,158a29.35,29.35,0,0,1-17.9-8.49c-4.42-4.6-6.51-10.26-5.86-15.94.88-7.68,6.78-14.24,15.4-17.12A31.07,31.07,0,0,1,236,115.15a29.41,29.41,0,0,1,17.9,8.49C258.36,128.24,260.44,133.91,259.79,139.58Z"/><path class="cls-27" d="M268,120.57c5,12.81-3.09,27.91-18.06,33.73s-31.13.17-36.12-12.62,3.1-27.9,18.07-33.73S263,107.78,268,120.57Z"/><path class="cls-28" d="M281.81,72.17c.07.31.12.63.17,1a32.77,32.77,0,0,1,.34,5.74,24.38,24.38,0,0,0,0-6.69Z"/><polygon class="cls-29" points="119.69 112.18 1.65 156.27 0 153.76 55.98 25.07 193.06 0 194.75 2.57 119.69 112.18"/><polygon class="cls-30" points="193.06 0 56.47 24.98 56.47 24.98 55.98 25.07 55.97 25.09 58.91 29.56 59.31 29.29 96.23 85.33 100.08 84.76 194.75 2.57 193.06 0"/><polygon class="cls-31" points="58.91 29.56 55.97 25.09 0 153.76 1.65 156.27 96.84 85.42 59.34 29.27 58.91 29.56"/><polygon class="cls-32" points="119.69 112.18 1.65 156.27 57.67 27.64 194.74 2.58 119.69 112.18"/><path class="cls-33" d="M173.63,73.15c2.49,3.78-17.84,25.91-47.8,47.22S67.27,153.5,65.16,150.29C46.74,122.35,28,109.87,86.94,68.42,149.52,24.41,150,41.22,173.63,73.15Z"/><path class="cls-34" d="M173.63,73.15C177.3,78.3,156,99.75,126,121.06s-57.21,34.39-60.87,29.23,17.64-26.6,47.59-47.91S170,68,173.63,73.15Z"/><path class="cls-35" d="M118.16,13.7s19.24-4.19,34.42,3.63C170.39,26.5,185.15,39,201.8,38.48s26.07-8,26.07-8l-1.81-2.74s-20.35,14.72-45.09,1C165.28,20,140-1.8,118.16,13.7Z"/><path class="cls-36" d="M243.45,20.08s-9.31,11.29-18.17,15.38-14.88,3.17-15.76,1.81-1.33-6.21,9.08-11.88a82.57,82.57,0,0,0,17.22-12.48C238.22,14,240.75,16.27,243.45,20.08Z"/><path class="cls-37" d="M237.75,14a49.13,49.13,0,0,1-8,7.32,73.73,73.73,0,0,1-11.28,6.74A56.65,56.65,0,0,0,233,20.34a78.79,78.79,0,0,0,6.36-5A16.94,16.94,0,0,0,237.75,14Z"/><path class="cls-38" d="M241.56,17.62c-.47.55-1,1.09-1.47,1.63A73.4,73.4,0,0,1,230.28,28a55.84,55.84,0,0,0,12-9.48C242,18.2,241.8,17.91,241.56,17.62Z"/></g></g></g></svg>