<svg xmlns="http://www.w3.org/2000/svg" viewBox="0 0 47.95 60.82"><defs><style>.cls-1{fill:#e6e6e6;}.cls-2{fill:#ccc;}.cls-3{fill:#999;}.cls-4{fill:#b2b2b2;}.cls-5{fill:#333;}.cls-6{fill:#1a1a1a;}.cls-7{fill:#4d4d4d;}.cls-8{fill:#663f30;}.cls-9{fill:#f0851d;}.cls-10{fill:#ffe167;}</style></defs><g id="Layer_2" data-name="Layer 2"><g id="icons"><path class="cls-1" d="M16.84,9.5c1.43,5.65,1.26,10.56-.36,11S12.38,16.63,11,11,9.7.44,11.32,0,15.42,3.86,16.84,9.5Z"/><path class="cls-2" d="M16.25,12c1,4.06,1.17,7.52.33,7.73s-2.35-2.9-3.38-7S12,5.26,12.87,5.05,15.23,8,16.25,12Z"/><path class="cls-1" d="M25.58,38.49a14.15,14.15,0,0,1-2.32,8.11H13.78a14.11,14.11,0,0,1-2.32-8.1c0-6,3.16-10.94,7.07-10.94h.06C22.46,27.6,25.58,32.48,25.58,38.49Z"/><path class="cls-1" d="M21.35,33.9c0,4-1.24,7.19-2.76,7.27h-.06c-1.57,0-2.83-3.26-2.83-7.28s1.26-7.29,2.83-7.29h.06C20.11,26.69,21.35,29.92,21.35,33.9Z"/><path class="cls-3" d="M16.28,42c1.46,2.45,1.51,5.1.13,5.93s-3.69-.49-5.15-2.94-1.51-5.11-.13-5.93S14.83,39.55,16.28,42Z"/><path class="cls-4" d="M17.77,47a1.16,1.16,0,0,1-1.15,1.15H15.37A1.16,1.16,0,0,1,14.22,47h0a1.16,1.16,0,0,1,1.15-1.15h1.25A1.16,1.16,0,0,1,17.77,47Z"/><path class="cls-4" d="M20.77,42c-1.46,2.45-1.52,5.1-.13,5.93s3.69-.49,5.15-2.94,1.51-5.11.12-5.93S22.22,39.55,20.77,42Z"/><path class="cls-2" d="M19.28,47a1.16,1.16,0,0,0,1.15,1.15h1.25A1.16,1.16,0,0,0,22.83,47h0a1.16,1.16,0,0,0-1.15-1.15H20.43A1.16,1.16,0,0,0,19.28,47Z"/><path class="cls-1" d="M14.78,34.7c-1,2.57-2.75,4.29-3.87,3.85s-1.19-2.88-.17-5.46,2.75-4.3,3.87-3.85S15.8,32.12,14.78,34.7Z"/><path class="cls-1" d="M22.21,34.64c1.1,2.6,2.88,4.38,4,4s1.11-2.86,0-5.46-2.88-4.38-4-4S21.11,32,22.21,34.64Z"/><path class="cls-1" d="M20.73,9.5c-1.43,5.65-1.26,10.56.36,11s4.1-3.84,5.53-9.48S27.88.44,26.25,0,22.15,3.86,20.73,9.5Z"/><path class="cls-2" d="M21.56,12c-1,4.06-1.14,7.52-.3,7.73s2.35-2.92,3.35-7S25.74,5.25,24.9,5,22.56,8,21.56,12Z"/><path class="cls-1" d="M26.24,22.9a7.72,7.72,0,0,1-7.65,7.72h-.06a7.73,7.73,0,1,1,0-15.45h.06A7.73,7.73,0,0,1,26.24,22.9Z"/><path class="cls-5" d="M20.86,25.35,19.25,27a.92.92,0,0,1-.73.26.91.91,0,0,1-.6-.26l-1.61-1.61a1,1,0,0,1,0-1.33h4.55A1,1,0,0,1,20.86,25.35Z"/><path class="cls-5" d="M15.28,23.18a.56.56,0,1,1-.55-.56A.55.55,0,0,1,15.28,23.18Z"/><path class="cls-5" d="M23.08,23.18a.55.55,0,0,1-.55.55.56.56,0,1,1,0-1.11A.55.55,0,0,1,23.08,23.18Z"/><rect class="cls-5" x="6.01" y="33.3" width="24.82" height="27.52" rx="1.34"/><rect class="cls-6" x="14.05" y="32.71" width="13.95" height="26.19" rx="1.34"/><path class="cls-7" d="M1.34,31.52H35.62A1.33,1.33,0,0,1,37,32.85v.89a1.33,1.33,0,0,1-1.33,1.33H1.34A1.34,1.34,0,0,1,0,33.75v-.89a1.34,1.34,0,0,1,1.34-1.34Z"/><path class="cls-8" d="M47.72,29.3a.77.77,0,0,1,0,1.09h0a.77.77,0,0,1-1.09,0L28,11.73a.77.77,0,0,1,0-1.09h0a.77.77,0,0,1,1.09,0Z"/><polygon class="cls-9" points="21.22 3.89 26.23 5.59 30.46 2.43 30.39 7.71 34.71 10.76 29.66 12.33 28.09 17.38 25.04 13.06 19.76 13.13 22.92 8.89 21.22 3.89"/><polygon class="cls-10" points="8.47 7.1 9.55 9.28 11.96 9.63 10.22 11.33 10.63 13.73 8.47 12.6 6.32 13.73 6.73 11.33 4.99 9.63 7.4 9.28 8.47 7.1"/><polygon class="cls-10" points="2.22 16.84 2.75 17.9 3.91 18.07 3.07 18.89 3.27 20.05 2.22 19.5 1.18 20.05 1.38 18.89 0.53 18.07 1.7 17.9 2.22 16.84"/><polygon class="cls-10" points="5.71 22.99 6.56 24.72 8.47 25 7.09 26.35 7.42 28.26 5.71 27.36 4 28.26 4.32 26.35 2.94 25 4.85 24.72 5.71 22.99"/><polygon class="cls-10" points="30.83 24.82 31.41 26 32.72 26.19 31.77 27.11 32 28.41 30.83 27.79 29.66 28.41 29.89 27.11 28.94 26.19 30.25 26 30.83 24.82"/></g></g></svg>