<svg xmlns="http://www.w3.org/2000/svg" viewBox="0 0 190.94 380.81"><defs><style>.cls-1{fill:#818284;}.cls-2{fill:#010101;}.cls-3{fill:#fff;}.cls-4{fill:#535353;}.cls-5{fill:none;stroke:#fff;stroke-linecap:round;stroke-linejoin:round;stroke-width:0.75px;}</style></defs><g id="Layer_2" data-name="Layer 2"><g id="Objects"><rect class="cls-1" width="190.94" height="380.81" rx="28.16"/><rect class="cls-2" x="1.44" y="2.09" width="188.44" height="375.83" rx="28.16"/><rect class="cls-3" x="6.85" y="31.48" width="178.05" height="315.9"/><path class="cls-4" d="M113.68,20.27H76.09A1.32,1.32,0,0,1,74.77,19h0a1.32,1.32,0,0,1,1.32-1.32h37.59A1.32,1.32,0,0,1,115,19h0A1.32,1.32,0,0,1,113.68,20.27Z"/><rect class="cls-3" x="35.38" y="358.24" width="7.14" height="0.98"/><rect class="cls-5" x="93.26" y="358.78" width="5.6" height="5.52"/><path class="cls-5" d="M148.89,358.44,146.31,361a1,1,0,0,0,0,1.41l2.58,2.57"/></g></g></svg>