<?xml version="1.0" encoding="utf-8"?>
<!-- Generator: Adobe Illustrator 24.2.1, SVG Export Plug-In . SVG Version: 6.00 Build 0)  -->
<svg version="1.1" id="Ñëîé_1" xmlns="http://www.w3.org/2000/svg" xmlns:xlink="http://www.w3.org/1999/xlink" x="0px" y="0px"
	 viewBox="0 0 500 500" style="enable-background:new 0 0 500 500;" xml:space="preserve">
<style type="text/css">
	.st0{opacity:0.49;fill:#191438;}
	.st1{fill:#17161C;}
	.st2{fill:#080B08;}
	.st3{fill:#9A0000;}
	.st4{fill:#232228;}
	.st5{fill:#C12525;}
	.st6{fill:#19190D;}
	.st7{fill:#434947;}
	.st8{clip-path:url(#SVGID_2_);fill:#0F0F08;}
	.st9{fill:#840303;}
	.st10{fill:#2B2A35;}
	.st11{fill:#121214;}
	.st12{fill:#5D5D66;}
	.st13{fill:#DCC06C;}
	.st14{fill:#E5B439;}
	.st15{fill:#EFD460;}
	.st16{clip-path:url(#SVGID_4_);}
	.st17{fill:#EAE5E5;}
	.st18{fill:#EF5488;stroke:#E5387A;stroke-width:1.0424;stroke-miterlimit:10;}
	.st19{fill:#F2799E;}
	.st20{fill:#FFFFFF;}
	.st21{fill:#EF5488;stroke:#E5387A;stroke-width:0.891;stroke-miterlimit:10;}
	.st22{fill:#D8D4D4;}
</style>
<ellipse class="st0" cx="248.5" cy="375.5" rx="151.5" ry="35.5"/>
<g>
	<path class="st1" d="M343.63,203.13c8.79-0.63,15.87,8.2,14.8,18.39c-1.46,14.04-2.53,29.1-2.99,45.09
		c-0.89,30.73,0.66,58.56,3.28,82.77c0.85,7.81-3.15,15.2-9.56,17.67c-14.71,5.68-35.32,11.2-60.07,10.72
		c-22.13-0.43-40.66-5.52-54.34-10.83c-6.27-2.44-10.23-9.62-9.52-17.29c2.48-26.9,3.66-57.14,2.34-90.07
		c-0.43-10.68-1.1-21.01-1.95-30.95c-0.79-9.24,5.17-17.38,13.11-17.96C273.7,208.16,308.67,205.65,343.63,203.13z"/>
	<path class="st2" d="M309.61,246.91c0,0-12.82,97.3-67.93,122.52c0,0,64.3,23.6,107.52-1.86c6.82-4.02,10.72-11.61,10.09-19.51
		c-2-24.81-5.78-83.21,0.8-105.11C368.52,214.82,309.61,246.91,309.61,246.91z"/>
	<path class="st3" d="M226.88,245.77l1.19,32.59c0,0,76.12,26.59,128.58,0c0,0-0.22-22.32,4.16-35.69
		C365.18,229.3,226.88,245.77,226.88,245.77z"/>
	<path class="st4" d="M407.07,210.91c0.03,34.61-154.68,61.99-204.33,32.69c-5.44-3.21-18.35-10.83-21.45-24.52
		c-4.05-17.85,11.17-34.48,13.28-36.78c24.71-27,71.33-20.96,99.1-17.37C327.26,169.28,407.05,186.05,407.07,210.91z"/>
	<path class="st5" d="M237.48,248.71l23.5,2.04c0.12,4.71-0.08,10.33-1.02,16.6c-1.07,7.14-2.82,13.24-4.58,18.11l-22.9-5.7
		c1.62-3.38,3.42-8,4.5-13.69C238.31,258.99,238.02,252.92,237.48,248.71z"/>
	<path class="st6" d="M360.08,210.06c0.01,20.25-90.48,36.26-119.53,19.12c-3.18-1.88-10.73-6.33-12.55-14.34
		c-2.37-10.44,6.54-20.17,7.77-21.51c14.46-15.79,41.73-12.26,57.97-10.16C313.39,185.71,360.07,195.52,360.08,210.06z"/>
	<path class="st7" d="M327.35,250.56c0,0-117.46,11.43-146.06-31.48C181.29,219.08,192.46,276.93,327.35,250.56z"/>
	<g>
		<defs>
			<path id="SVGID_1_" d="M360.08,210.06c0.01,20.25-90.48,36.26-119.53,19.12c-3.18-1.88-10.73-6.33-12.55-14.34
				c-2.37-10.44,6.54-20.17,7.77-21.51c14.46-15.79,41.73-12.26,57.97-10.16C313.39,185.71,360.07,195.52,360.08,210.06z"/>
		</defs>
		<clipPath id="SVGID_2_">
			<use xlink:href="#SVGID_1_"  style="overflow:visible;"/>
		</clipPath>
		<path class="st8" d="M322.28,186.39c-29.61,11.3-47.37,26.05-45.28,36.63c0.44,2.21,2.49,8.05,16.9,12.77
			c-9.97,2.88-18.35,3.02-23.72,2.7c-6.35-0.38-18.25-1.23-29.63-9.19c-4.4-3.08-11.16-7.81-13.28-16.35
			c-0.12-0.49-1.48-6.25,0.24-11.78c6.11-19.74,46.95-22.77,49.83-22.95C286.56,177.62,302.87,177.98,322.28,186.39z"/>
	</g>
	<path class="st7" d="M271.19,181.28c0,0.23,5.98-0.06,16.35,1.02c5.52,0.57,9.64,1.26,14.3,2.04c6.83,1.15,12.73,2.14,20.43,4.09
		c5.96,1.51,13.94,3.82,21.45,7.15c2.73,1.21,5.79,2.73,9.19,5.11c2.21,1.55,3.93,3.01,5.11,4.09c-4.2-5.1-8.37-8.3-11.24-10.22
		c-6.57-4.38-12.65-6.17-19.41-8.17c-5.49-1.62-10.13-2.54-13.28-3.06c-3.57-0.68-8.46-1.49-14.3-2.04
		C284.21,179.79,271.19,180.94,271.19,181.28z"/>
	<path class="st9" d="M360.81,242.67c0,0-5.42,21.37-4.4,36.7c0,0-16.81,10.38-57.14,10.81c0,0,4.18-18.29,6.95-36.01
		C306.22,254.17,348.84,247.69,360.81,242.67z"/>
	<path class="st10" d="M255.38,285.46c0,0-11.34,28.63-27.77,31.19l0.49-23.25l0.03-5.87c0,0,3.17-5.13,4.35-7.77
		C232.47,279.77,249.24,284.31,255.38,285.46z"/>
</g>
<g>
	<g>
		
			<rect x="83.97" y="137.2" transform="matrix(0.8904 -0.4552 0.4552 0.8904 -48.9154 78.6763)" class="st11" width="109.92" height="7.44"/>
		<path class="st12" d="M187.4,114.98c0,0-48.69,29.45-97.88,50.03l2.16,4.23l97.88-50.03L187.4,114.98z"/>
		<path class="st13" d="M91.68,169.25l-23.55,12.04c-0.51-0.2-1.72-0.76-2.61-2.07c-1.35-2-0.87-4.18-0.78-4.55
			c7.85-4.01,15.7-8.03,23.55-12.04L91.68,169.25z"/>
		<polygon class="st14" points="89.52,165.02 64.75,174.66 88.3,162.62 		"/>
		<path class="st14" d="M91.68,169.25c-3.62,2.11-8.7,4.56-15.1,6.17c-4.47,1.13-8.5,1.57-11.81,1.71c0.1,0.57,0.49,2.42,2.13,3.55
			c0.43,0.3,0.86,0.48,1.24,0.6C75.98,177.27,83.83,173.26,91.68,169.25z"/>
		<path class="st13" d="M189.53,119.23l23.55-12.04c0.14-0.53,0.39-1.84-0.15-3.33c-0.83-2.27-2.87-3.15-3.23-3.3
			c-7.85,4.01-15.7,8.03-23.55,12.04L189.53,119.23z"/>
		<polygon class="st14" points="187.36,115 209.69,100.57 186.14,112.61 		"/>
		<path class="st14" d="M189.53,119.23c3.84-1.7,8.79-4.38,13.85-8.62c3.53-2.96,6.25-5.97,8.3-8.58c0.4,0.41,1.68,1.82,1.64,3.81
			c-0.01,0.52-0.11,0.98-0.23,1.36C205.23,111.21,197.38,115.22,189.53,119.23z"/>
		<path class="st12" d="M105.47,153.85c0,0,37.69-15.24,70.16-35.86L105.47,153.85z"/>
	</g>
	<path class="st15" d="M246.53,99.95c0,0,11.58-4,12.26-12.95c0,0,1.7,11.73,10.39,12.97c0,0-8.47,2.6-11.32,14.18
		C257.85,114.15,257.42,105.5,246.53,99.95z"/>
	<path class="st15" d="M222.77,91.67c0,0,4.18-1.44,4.42-4.67c0,0,0.61,4.23,3.75,4.68c0,0-3.06,0.94-4.09,5.12
		C226.86,96.8,226.71,93.68,222.77,91.67z"/>
	<path class="st15" d="M230.95,121.76c0,0,6.05-2.09,6.4-6.76c0,0,0.89,6.13,5.42,6.77c0,0-4.42,1.36-5.91,7.41
		C236.86,129.18,236.64,124.67,230.95,121.76z"/>
	<path class="st15" d="M217.63,131.37c0,1.21-0.98,2.19-2.19,2.19c-1.21,0-2.19-0.98-2.19-2.19c0-1.21,0.98-2.19,2.19-2.19
		C216.65,129.18,217.63,130.16,217.63,131.37z"/>
	<path class="st15" d="M250.19,142.75c0,1.01-0.82,1.83-1.83,1.83c-1.01,0-1.83-0.82-1.83-1.83c0-1.01,0.82-1.83,1.83-1.83
		C249.37,140.92,250.19,141.74,250.19,142.75z"/>
	<path class="st15" d="M226.24,107.79c0,1.27-1.03,2.3-2.3,2.3c-1.27,0-2.3-1.03-2.3-2.3s1.03-2.3,2.3-2.3
		C225.21,105.48,226.24,106.51,226.24,107.79z"/>
</g>
<g>
	<defs>
		<path id="SVGID_3_" d="M227.26,212.95c0,0,19.4,26.04,66.63,22.84C350,232,356,215,360,210s80-119,65-134S251-22,218,36
			L227.26,212.95z"/>
	</defs>
	<clipPath id="SVGID_4_">
		<use xlink:href="#SVGID_3_"  style="overflow:visible;"/>
	</clipPath>
	<g class="st16">
		<path class="st17" d="M300.6,144.98c0.52,18.78-2.95,32.85-8.44,55.07c-4.14,16.77-8.7,34.65-16.33,35.19
			c-4.96,0.35-9.36-6.76-12.81-13.13c-21.41-39.57-21.79-73.84-21.79-73.84c-0.39-35.58,9.17-89.31,24.76-90.26
			C281.04,57.1,299.51,105.38,300.6,144.98z"/>
		
			<ellipse transform="matrix(0.9985 -0.0554 0.0554 0.9985 -8.543 15.2964)" class="st18" cx="271.6" cy="161.72" rx="23.06" ry="69.54"/>
		
			<ellipse transform="matrix(0.9985 -0.0554 0.0554 0.9985 -9.2078 15.3812)" class="st19" cx="272.81" cy="173.76" rx="18.26" ry="55.05"/>
		<path class="st20" d="M245.23,158.31c0,0,1.5-56.72,13.75-87.52C258.98,70.79,238.52,97.26,245.23,158.31z"/>
		<path class="st17" d="M371.8,184.13c-11.78,14.64-23.54,23.1-42.12,36.46c-14.02,10.09-29.09,20.74-35.24,16.21
			c-4.01-2.95-2.74-11.22-1.24-18.3c9.35-44.01,31.27-70.35,31.27-70.35c22.77-27.35,64.88-62.06,77.36-52.68
			C413.86,104.53,396.63,153.27,371.8,184.13z"/>
		
			<ellipse transform="matrix(0.605 -0.7962 0.7962 0.605 -8.2699 345.0057)" class="st21" cx="343.61" cy="180.84" rx="69.54" ry="16.85"/>
		
			<ellipse transform="matrix(0.605 -0.7962 0.7962 0.605 -17.7753 345.3107)" class="st19" cx="339.16" cy="190.57" rx="55.05" ry="11.35"/>
		<path class="st22" d="M286.66,243.77c33,0,60.16,24.99,63.6,57.08c0.24-2.27,0.38-4.56,0.38-6.89c0-35.33-28.64-63.98-63.98-63.98
			c-35.33,0-63.98,28.64-63.98,63.98c0,2.33,0.13,4.63,0.38,6.89C226.5,268.76,253.65,243.77,286.66,243.77z"/>
		<path class="st17" d="M286.66,240.32c33,0,60.16,24.99,63.6,57.08c0.24-2.27,0.38-4.56,0.38-6.89c0-35.33-28.64-63.98-63.98-63.98
			c-35.33,0-63.98,28.64-63.98,63.98c0,2.33,0.13,4.63,0.38,6.89C226.5,265.31,253.65,240.32,286.66,240.32z"/>
		<path class="st20" d="M250.25,243.77c0,0,34.46-20.68,73.24,0C323.49,243.77,289.89,211.02,250.25,243.77z"/>
		<path class="st20" d="M295.81,219.61c10.11-21.9,26.27-50.36,52.04-78.73c14.8-16.29,29.67-29.13,42.96-39.12
			c-5.24,1.98-12.51,5.09-20.68,9.8c-5.58,3.22-32.56,19.29-53.14,52.76C304.15,185.19,298.47,205.23,295.81,219.61z"/>
	</g>
</g>
</svg>
