<svg xmlns="http://www.w3.org/2000/svg" viewBox="0 0 140.02 140.02"><defs><style>.cls-1{fill:#fff;}.cls-2{fill:#ff1352;}.cls-3{fill:#00f1ea;}</style></defs><g id="Layer_2" data-name="Layer 2"><g id="OBJECTS"><rect class="cls-1" width="140.02" height="140.02" rx="70.01"/><path class="cls-2" d="M111.63,48.31A21.15,21.15,0,0,1,90.48,27.15H74.61V88.57A12.93,12.93,0,1,1,61.68,75.64a14.35,14.35,0,0,1,4.07.58V60.06A28.79,28.79,0,1,0,90.48,88.57V56.06a33.32,33.32,0,0,0,21.15,7.53Z"/><path class="cls-3" d="M107.14,43.82A21.16,21.16,0,0,1,86,22.66H70.12V84.07A12.93,12.93,0,1,1,57.19,71.14a14.41,14.41,0,0,1,4.07.59V55.56A28.8,28.8,0,1,0,86,84.07V51.57a33.41,33.41,0,0,0,21.16,7.53Z"/><path d="M107.14,47.83A21.15,21.15,0,0,1,94.6,39.7a21.16,21.16,0,0,1-8.13-12.55H74.61V88.57a12.93,12.93,0,0,1-24,6.61,12.93,12.93,0,0,1,6.62-24,14.41,14.41,0,0,1,4.07.59v-12A28.79,28.79,0,0,0,39.2,106.56,28.79,28.79,0,0,0,86,84.07V51.57a33.41,33.41,0,0,0,21.16,7.53Z"/></g></g></svg>